<?xml version="1.0" encoding="UTF-8"?>
<svg id="Layer_1" data-name="Layer 1" xmlns="http://www.w3.org/2000/svg" viewBox="0 0 512 166.06">
  <defs>
    <style>
      .cls-1 {
        fill: #f98d00;
      }

      .cls-2 {
        fill: #000000;
      }
    </style>
  </defs>
  <g>
    <path class="cls-2" d="m114.15,107.85h-.02l-8.96-22.51L75.18,10.19l-2.47-6.22h-22.56l-2.49,6.19v.02l-29.96,75.15-8.98,22.51L0,129.67h27.52l8.71-21.82h50.37l8.71,21.82h27.52l-8.69-21.82Zm-68.93-22.51l16.21-40.65,16.21,40.65h-32.43Z"/>
    <polygon class="cls-2" points="209.61 43 175.47 121.98 162.84 151.2 156.42 166.06 128.9 166.06 150.2 121.96 116.09 43 143.61 43 162.84 95.72 182.09 43 209.61 43"/>
    <path class="cls-2" d="m216.82,43v52.85s-1.86,35.45,39.41,35.68c41.28.23,39.99-35.68,39.99-35.68v-52.84s-25.14,0-25.14,0v52.84s0,13.3-14.56,13.29-14.55-13.29-14.55-13.29v-52.85h-25.14Z"/>
    <path class="cls-2" d="m378.43,57.02s-8.4-16.45-34.75-16.45c0,0-32.88,0-33.54,29.15,0,0-2.84,21.45,34,27.28,0,0,9.14,1.4,9.14,8.4-1.21,7-9,6.06-9,6.06,0,0-12.96,1.63-24.16-9.79l-15.16,14.46s12.83,15.41,38.48,15.39c0,0,34.98,1.52,34.98-26.99,0,0,2.57-22.91-33.11-30.14,0,0-10.03-.93-10.03-5.83s4.2-6.3,10.03-6.3,12.59,1.4,18.42,8.4l14.69-13.64Z"/>
    <path class="cls-2" d="m391.5,0v129.68h25.14v-50.84s.96-15.41,17.29-14.94c14.92.43,15.14,14.94,15.14,14.94v50.84h25.14v-57.62s-1.1-30.55-34.22-31.48c0,0-13.82-.7-23.35,7.46V0h-25.14Z"/>
    <polygon class="cls-2" points="114.15 107.85 114.12 107.85 105.16 85.34 114.15 107.85"/>
  </g>
  <circle class="cls-1" cx="499.35" cy="116.96" r="12.65"/>
</svg>